<svg width="128" height="128" viewBox="0 0 128 128" fill="none" xmlns="http://www.w3.org/2000/svg">
<rect x="0.5" y="0.5" width="127" height="127" fill="#F49999" stroke="black"/>
<path d="M23.8648 27.9C23.8648 25.86 24.5982 24.1667 26.0648 22.82C27.5448 21.46 29.2848 20.78 31.2848 20.78C32.4848 20.78 33.5982 21.1933 34.6248 22.02C34.7315 22.1133 34.7848 22.2333 34.7848 22.38C34.7848 22.5933 34.6982 22.7933 34.5248 22.98C34.3515 23.1533 34.1715 23.24 33.9848 23.24C33.8515 23.24 33.7382 23.1933 33.6448 23.1C33.0048 22.54 32.2048 22.26 31.2448 22.26C29.4982 22.26 28.0782 22.8267 26.9848 23.96C25.9048 25.08 25.3648 26.3867 25.3648 27.88C25.3648 29.4133 25.8982 30.7667 26.9648 31.94C28.0315 33.1133 29.4648 33.7 31.2648 33.7C32.4382 33.7 33.3915 33.28 34.1248 32.44C34.2715 32.2933 34.3982 32.22 34.5048 32.22C34.7048 32.22 34.8982 32.32 35.0848 32.52C35.2715 32.72 35.3648 32.9133 35.3648 33.1C35.3648 33.22 35.3182 33.3267 35.2248 33.42C34.1982 34.5933 32.9115 35.18 31.3648 35.18C29.8315 35.18 28.4848 34.8333 27.3248 34.14C26.1648 33.4333 25.2982 32.54 24.7248 31.46C24.1515 30.3667 23.8648 29.18 23.8648 27.9ZM36.8178 30.92C36.8178 30.8 36.8178 30.2067 36.8178 29.14C36.8311 28.06 36.8378 26.8667 36.8378 25.56C36.8378 25.3867 36.9111 25.2533 37.0578 25.16C37.2045 25.0533 37.3778 25 37.5778 25C38.0711 25 38.3178 25.1867 38.3178 25.56V30.74C38.3178 31.6867 38.6511 32.4267 39.3178 32.96C39.9978 33.48 40.6978 33.74 41.4178 33.74C42.3245 33.74 43.2911 33.4133 44.3178 32.76C45.3578 32.0933 46.0778 31.2667 46.4778 30.28V25.54C46.4778 25.18 46.7311 25 47.2378 25C47.4378 25 47.6045 25.0467 47.7378 25.14C47.8845 25.2333 47.9578 25.3667 47.9578 25.54V34.46C47.9578 34.6333 47.8845 34.7667 47.7378 34.86C47.6045 34.9533 47.4378 35 47.2378 35C46.7311 35 46.4778 34.82 46.4778 34.46V32.82C45.8111 33.5533 45.0111 34.1333 44.0778 34.56C43.1578 34.9867 42.2111 35.2 41.2378 35.2C39.9845 35.2 38.9311 34.8 38.0778 34C37.2378 33.2 36.8178 32.1733 36.8178 30.92ZM49.9363 33.1C49.9363 32.9267 50.0096 32.74 50.1563 32.54C50.3163 32.34 50.4963 32.2133 50.6963 32.16C50.7896 32.16 50.8363 32.1733 50.8363 32.2C51.2629 32.6667 51.8763 33.0333 52.6763 33.3C53.4763 33.5533 54.1029 33.7 54.5563 33.74C55.0229 33.78 55.4563 33.8 55.8563 33.8C57.5896 33.8 58.4563 33.2733 58.4563 32.22C58.4563 31.86 58.3229 31.5733 58.0563 31.36C57.8029 31.1333 57.4496 30.98 56.9963 30.9C56.5563 30.82 56.1096 30.7667 55.6563 30.74C55.2029 30.7133 54.7096 30.6933 54.1763 30.68C53.6429 30.6533 53.2363 30.6133 52.9563 30.56C52.1963 30.4133 51.5229 30.1067 50.9363 29.64C50.3496 29.16 50.0563 28.6 50.0563 27.96C50.0563 26.9467 50.5629 26.1733 51.5763 25.64C52.6029 25.0933 53.7296 24.82 54.9563 24.82C55.7829 24.82 56.6696 24.9667 57.6163 25.26C58.5629 25.54 59.2696 25.98 59.7363 26.58C59.7496 26.6067 59.7563 26.64 59.7563 26.68C59.7563 26.8533 59.6763 27.06 59.5163 27.3C59.3563 27.5267 59.2029 27.64 59.0563 27.64C58.9229 27.64 58.7896 27.5333 58.6563 27.32C58.0163 26.64 56.7429 26.3 54.8363 26.3C54.0496 26.3 53.3029 26.4333 52.5963 26.7C51.8896 26.9667 51.5363 27.36 51.5363 27.88C51.5363 28.32 51.8429 28.6533 52.4563 28.88C53.0696 29.0933 53.7229 29.2 54.4163 29.2C54.9096 29.2 55.3229 29.2067 55.6563 29.22C55.9896 29.2333 56.3963 29.2733 56.8763 29.34C57.3563 29.3933 57.7563 29.4933 58.0763 29.64C58.3963 29.7733 58.7096 29.9533 59.0163 30.18C59.3229 30.3933 59.5496 30.6867 59.6963 31.06C59.8563 31.42 59.9363 31.8467 59.9363 32.34C59.9363 33.02 59.7229 33.5933 59.2963 34.06C58.8829 34.5133 58.4029 34.8267 57.8563 35C57.3229 35.1867 56.7563 35.28 56.1563 35.28C53.3429 35.28 51.3163 34.68 50.0763 33.48C49.9829 33.3867 49.9363 33.26 49.9363 33.1ZM61.2783 25.74C61.2783 25.54 61.3249 25.3667 61.4183 25.22C61.5249 25.0733 61.6649 25 61.8383 25H62.5183V22.54C62.5183 22.3667 62.5849 22.2333 62.7183 22.14C62.8649 22.0467 63.0383 22 63.2383 22C63.7449 22 63.9983 22.18 63.9983 22.54V25H67.1983C67.3716 25 67.5049 25.0733 67.5983 25.22C67.6916 25.3533 67.7383 25.52 67.7383 25.72C67.7383 26.2267 67.5583 26.48 67.1983 26.48H63.9983V31.26C63.9983 32.7533 64.5649 33.5 65.6983 33.5C66.1783 33.5 66.5916 33.3667 66.9383 33.1C67.2983 32.8333 67.4783 32.3667 67.4783 31.7C67.4783 31.5133 67.5516 31.36 67.6983 31.24C67.8583 31.12 68.0449 31.06 68.2583 31.06C68.4583 31.06 68.6249 31.12 68.7583 31.24C68.8916 31.3467 68.9583 31.5067 68.9583 31.72C68.9449 32.7733 68.6249 33.58 67.9983 34.14C67.3849 34.7 66.6183 34.98 65.6983 34.98C63.5783 34.98 62.5183 33.56 62.5183 30.72V26.48H61.8383C61.4649 26.48 61.2783 26.2333 61.2783 25.74ZM70.053 30.04C70.053 28.8933 70.353 27.9067 70.953 27.08C71.5663 26.24 72.2996 25.6333 73.153 25.26C74.0196 24.8867 74.9263 24.7 75.873 24.7C77.2063 24.7 78.433 25.2067 79.553 26.22C80.6863 27.22 81.253 28.4867 81.253 30.02C81.253 31.4733 80.753 32.72 79.753 33.76C78.753 34.7867 77.4463 35.3 75.833 35.3C74.2463 35.3 72.8863 34.7867 71.753 33.76C70.6196 32.72 70.053 31.48 70.053 30.04ZM71.533 30.06C71.533 31.0067 71.9663 31.8733 72.833 32.66C73.6996 33.4333 74.7063 33.82 75.853 33.82C76.933 33.82 77.853 33.4267 78.613 32.64C79.3863 31.8533 79.773 30.98 79.773 30.02C79.773 29.0867 79.4063 28.2133 78.673 27.4C77.9396 26.5867 76.993 26.18 75.833 26.18C74.473 26.18 73.413 26.5933 72.653 27.42C71.9063 28.2467 71.533 29.1267 71.533 30.06ZM83.1878 34.44V25.58C83.1878 25.22 83.4411 25.04 83.9478 25.04C84.1478 25.04 84.3145 25.0867 84.4478 25.18C84.5945 25.2733 84.6678 25.4067 84.6678 25.58V26.64C85.0945 26.1333 85.6145 25.7 86.2278 25.34C86.8411 24.98 87.4478 24.8 88.0478 24.8C89.6878 24.8 90.8545 25.3933 91.5478 26.58C91.9611 26.0067 92.4878 25.5667 93.1278 25.26C93.7811 24.9533 94.4411 24.8 95.1078 24.8C96.3478 24.8 97.3278 25.1533 98.0478 25.86C98.7678 26.5667 99.1278 27.5467 99.1278 28.8C99.1278 28.92 99.1211 29.58 99.1078 30.78C99.1078 31.9667 99.1078 33.2133 99.1078 34.52C99.1078 34.6933 99.0345 34.8333 98.8878 34.94C98.7411 35.0333 98.5745 35.08 98.3878 35.08C97.8945 35.08 97.6478 34.8933 97.6478 34.52V28.98C97.6478 27.18 96.8278 26.28 95.1878 26.28C94.9478 26.28 94.7011 26.3067 94.4478 26.36C94.2078 26.4 93.9411 26.4867 93.6478 26.62C93.3678 26.7533 93.1145 26.92 92.8878 27.12C92.6611 27.3067 92.4745 27.5667 92.3278 27.9C92.1811 28.2333 92.1078 28.6067 92.1078 29.02C92.1078 29.54 92.1011 30.2 92.0878 31C92.0878 31.8 92.0878 32.9733 92.0878 34.52C92.0878 34.6933 92.0078 34.8333 91.8478 34.94C91.7011 35.0333 91.5278 35.08 91.3278 35.08C90.8611 35.08 90.6278 34.8933 90.6278 34.52V28.98C90.6278 28.0067 90.3945 27.3133 89.9278 26.9C89.4611 26.4867 88.8611 26.28 88.1278 26.28C87.4211 26.28 86.7345 26.5467 86.0678 27.08C85.4145 27.6133 84.9478 28.2333 84.6678 28.94V34.44C84.6678 34.6133 84.5945 34.7533 84.4478 34.86C84.3011 34.9533 84.1278 35 83.9278 35C83.4345 35 83.1878 34.8133 83.1878 34.44ZM10.3916 58.46V45.56C10.3916 45.1867 10.6383 45 11.1316 45C11.5983 45 11.8316 45.2867 11.8316 45.86C13.205 45.2733 14.5316 44.98 15.8116 44.98C17.625 44.98 18.9583 45.4133 19.8116 46.28C20.665 47.1467 21.0916 48.24 21.0916 49.56C21.0916 51.0533 20.5116 52.1267 19.3516 52.78C18.1916 53.4333 16.505 53.76 14.2916 53.76C14.025 53.76 13.6183 53.74 13.0716 53.7C12.5383 53.66 12.1383 53.64 11.8716 53.64V58.46C11.8716 58.6333 11.7983 58.7667 11.6516 58.86C11.5183 58.9533 11.3516 59 11.1516 59C10.645 59 10.3916 58.82 10.3916 58.46ZM11.8716 51.92C12.4183 52.0933 13.5183 52.18 15.1716 52.18C16.505 52.18 17.5783 51.9467 18.3916 51.48C19.205 51 19.6116 50.2867 19.6116 49.34C19.6116 48.5267 19.285 47.8467 18.6316 47.3C17.9783 46.74 16.9716 46.46 15.6116 46.46C14.4383 46.46 13.1916 46.8133 11.8716 47.52V51.92ZM22.2112 54.04C22.2112 52.8933 22.5112 51.9067 23.1112 51.08C23.7245 50.24 24.4578 49.6333 25.3112 49.26C26.1778 48.8867 27.0845 48.7 28.0312 48.7C29.3645 48.7 30.5912 49.2067 31.7112 50.22C32.8445 51.22 33.4112 52.4867 33.4112 54.02C33.4112 55.4733 32.9112 56.72 31.9112 57.76C30.9112 58.7867 29.6045 59.3 27.9912 59.3C26.4045 59.3 25.0445 58.7867 23.9112 57.76C22.7778 56.72 22.2112 55.48 22.2112 54.04ZM23.6912 54.06C23.6912 55.0067 24.1245 55.8733 24.9912 56.66C25.8578 57.4333 26.8645 57.82 28.0112 57.82C29.0912 57.82 30.0112 57.4267 30.7712 56.64C31.5445 55.8533 31.9312 54.98 31.9312 54.02C31.9312 53.0867 31.5645 52.2133 30.8312 51.4C30.0978 50.5867 29.1512 50.18 27.9912 50.18C26.6312 50.18 25.5712 50.5933 24.8112 51.42C24.0645 52.2467 23.6912 53.1267 23.6912 54.06ZM34.946 57.1C34.946 56.9267 35.0193 56.74 35.166 56.54C35.326 56.34 35.506 56.2133 35.706 56.16C35.7993 56.16 35.846 56.1733 35.846 56.2C36.2727 56.6667 36.886 57.0333 37.686 57.3C38.486 57.5533 39.1127 57.7 39.566 57.74C40.0327 57.78 40.466 57.8 40.866 57.8C42.5993 57.8 43.466 57.2733 43.466 56.22C43.466 55.86 43.3327 55.5733 43.066 55.36C42.8127 55.1333 42.4593 54.98 42.006 54.9C41.566 54.82 41.1193 54.7667 40.666 54.74C40.2127 54.7133 39.7193 54.6933 39.186 54.68C38.6527 54.6533 38.246 54.6133 37.966 54.56C37.206 54.4133 36.5327 54.1067 35.946 53.64C35.3593 53.16 35.066 52.6 35.066 51.96C35.066 50.9467 35.5727 50.1733 36.586 49.64C37.6127 49.0933 38.7393 48.82 39.966 48.82C40.7927 48.82 41.6793 48.9667 42.626 49.26C43.5727 49.54 44.2793 49.98 44.746 50.58C44.7593 50.6067 44.766 50.64 44.766 50.68C44.766 50.8533 44.686 51.06 44.526 51.3C44.366 51.5267 44.2127 51.64 44.066 51.64C43.9327 51.64 43.7993 51.5333 43.666 51.32C43.026 50.64 41.7527 50.3 39.846 50.3C39.0593 50.3 38.3127 50.4333 37.606 50.7C36.8993 50.9667 36.546 51.36 36.546 51.88C36.546 52.32 36.8527 52.6533 37.466 52.88C38.0793 53.0933 38.7327 53.2 39.426 53.2C39.9193 53.2 40.3327 53.2067 40.666 53.22C40.9993 53.2333 41.406 53.2733 41.886 53.34C42.366 53.3933 42.766 53.4933 43.086 53.64C43.406 53.7733 43.7193 53.9533 44.026 54.18C44.3327 54.3933 44.5593 54.6867 44.706 55.06C44.866 55.42 44.946 55.8467 44.946 56.34C44.946 57.02 44.7327 57.5933 44.306 58.06C43.8927 58.5133 43.4127 58.8267 42.866 59C42.3327 59.1867 41.766 59.28 41.166 59.28C38.3527 59.28 36.326 58.68 35.086 57.48C34.9927 57.3867 34.946 57.26 34.946 57.1ZM46.288 49.74C46.288 49.54 46.3347 49.3667 46.428 49.22C46.5347 49.0733 46.6747 49 46.848 49H47.528V46.54C47.528 46.3667 47.5947 46.2333 47.728 46.14C47.8747 46.0467 48.048 46 48.248 46C48.7547 46 49.008 46.18 49.008 46.54V49H52.208C52.3814 49 52.5147 49.0733 52.608 49.22C52.7014 49.3533 52.748 49.52 52.748 49.72C52.748 50.2267 52.568 50.48 52.208 50.48H49.008V55.26C49.008 56.7533 49.5747 57.5 50.708 57.5C51.188 57.5 51.6014 57.3667 51.948 57.1C52.308 56.8333 52.488 56.3667 52.488 55.7C52.488 55.5133 52.5614 55.36 52.708 55.24C52.868 55.12 53.0547 55.06 53.268 55.06C53.468 55.06 53.6347 55.12 53.768 55.24C53.9014 55.3467 53.968 55.5067 53.968 55.72C53.9547 56.7733 53.6347 57.58 53.008 58.14C52.3947 58.7 51.628 58.98 50.708 58.98C48.588 58.98 47.528 57.56 47.528 54.72V50.48H46.848C46.4747 50.48 46.288 50.2333 46.288 49.74ZM59.327 45.72C59.327 45.52 59.3736 45.3533 59.467 45.22C59.5603 45.0733 59.6936 45 59.867 45H69.747C69.9203 45 70.0536 45.0733 70.147 45.22C70.2536 45.3667 70.307 45.54 70.307 45.74C70.307 46.2333 70.1203 46.48 69.747 46.48H65.427V58.44C65.427 58.6133 65.3536 58.7533 65.207 58.86C65.0603 58.9533 64.887 59 64.687 59C64.1936 59 63.947 58.8133 63.947 58.44V46.48H59.867C59.507 46.48 59.327 46.2267 59.327 45.72ZM70.1484 54.92V49.52C70.1484 49.3467 70.215 49.2133 70.3484 49.12C70.495 49.0133 70.6617 48.96 70.8484 48.96C71.3417 48.96 71.5884 49.1467 71.5884 49.52V54.74C71.5884 55.2333 71.7217 55.6733 71.9884 56.06C72.255 56.4467 72.5884 56.74 72.9884 56.94C73.4017 57.14 73.8017 57.2933 74.1884 57.4C74.5884 57.4933 74.955 57.54 75.2884 57.54C76.235 57.54 77.1284 57.2467 77.9684 56.66C78.8084 56.0733 79.4017 55.2933 79.7484 54.32V49.52C79.7484 49.16 80.0017 48.98 80.5084 48.98C80.7084 48.98 80.875 49.0267 81.0084 49.12C81.155 49.2133 81.2284 49.3467 81.2284 49.52V59.1C81.2284 59.8867 81.0484 60.6067 80.6884 61.26C80.3417 61.9267 79.8884 62.46 79.3284 62.86C78.7684 63.26 78.1617 63.5667 77.5084 63.78C76.855 63.9933 76.2084 64.1 75.5684 64.1C74.475 64.1 73.4017 63.8467 72.3484 63.34C71.3084 62.8333 70.7817 62.1533 70.7684 61.3C70.7684 61.0867 70.835 60.92 70.9684 60.8C71.115 60.6933 71.2884 60.64 71.4884 60.64C71.7017 60.64 71.8884 60.7 72.0484 60.82C72.2084 60.94 72.2884 61.0933 72.2884 61.28C72.2884 61.7067 72.6684 62.0333 73.4284 62.26C74.1884 62.5 74.935 62.62 75.6684 62.62C76.2684 62.62 76.8617 62.5067 77.4484 62.28C78.0484 62.0667 78.5817 61.6867 79.0484 61.14C79.515 60.6067 79.7484 59.9733 79.7484 59.24V56.92C78.535 58.3067 76.9884 59 75.1084 59C73.8017 59 72.6484 58.6267 71.6484 57.88C70.6484 57.12 70.1484 56.1333 70.1484 54.92ZM83.6277 63.46V49.56C83.6277 49.3867 83.7011 49.2533 83.8477 49.16C83.9944 49.0533 84.1677 49 84.3677 49C84.8611 49 85.1077 49.1867 85.1077 49.56V51.74C86.3744 49.8067 88.2477 48.84 90.7277 48.84C91.8611 48.84 92.8211 49.22 93.6077 49.98C94.4077 50.7267 94.8077 51.6067 94.8077 52.62C94.8077 53.8067 94.4811 54.9 93.8277 55.9C93.1744 56.8867 92.3211 57.6533 91.2677 58.2C90.2277 58.7467 89.1344 59.02 87.9877 59.02C86.8811 59.02 85.9211 58.6533 85.1077 57.92V63.46C85.1077 63.82 84.8544 64 84.3477 64C84.1477 64 83.9744 63.9533 83.8277 63.86C83.6944 63.7667 83.6277 63.6333 83.6277 63.46ZM85.0877 55.06C85.0877 55.8733 85.4077 56.4867 86.0477 56.9C86.7011 57.3133 87.3477 57.52 87.9877 57.52C88.7611 57.52 89.5477 57.3333 90.3477 56.96C91.1477 56.5867 91.8277 56.0333 92.3877 55.3C92.9611 54.5533 93.2477 53.74 93.2477 52.86C93.2477 51.9533 92.9611 51.3 92.3877 50.9C91.8277 50.5 91.1477 50.3 90.3477 50.3C89.6011 50.3 88.8077 50.5533 87.9677 51.06C87.1411 51.5533 86.4544 52.18 85.9077 52.94C85.3611 53.6867 85.0877 54.3933 85.0877 55.06ZM96.3323 53.72C96.3323 52.8667 96.5189 52.1067 96.8923 51.44C97.2656 50.7733 97.7589 50.2467 98.3723 49.86C98.9856 49.4733 99.6456 49.1867 100.352 49C101.059 48.8 101.779 48.7 102.512 48.7C103.819 48.7 104.832 48.9867 105.552 49.56C106.272 50.12 106.632 50.8133 106.632 51.64C106.632 52.5333 106.212 53.2933 105.372 53.92C104.532 54.5467 103.339 54.86 101.792 54.86C100.406 54.86 99.0856 54.66 97.8323 54.26C97.9789 55.2467 98.4389 56.0733 99.2123 56.74C99.9856 57.4067 100.939 57.74 102.072 57.74C102.672 57.74 103.292 57.6467 103.932 57.46C104.586 57.2733 105.099 57.0067 105.472 56.66C105.526 56.5533 105.632 56.5 105.792 56.5C105.979 56.5 106.179 56.5867 106.392 56.76C106.606 56.92 106.712 57.0867 106.712 57.26C106.379 57.94 105.726 58.44 104.752 58.76C103.792 59.0667 102.859 59.22 101.952 59.22C100.312 59.22 98.9656 58.68 97.9123 57.6C96.8589 56.52 96.3323 55.2267 96.3323 53.72ZM97.9123 52.72C98.9123 53.16 100.152 53.38 101.632 53.38C102.792 53.38 103.672 53.2 104.272 52.84C104.872 52.4667 105.172 52.0533 105.172 51.6C105.172 51.2 104.919 50.8667 104.412 50.6C103.919 50.32 103.179 50.18 102.192 50.18C101.126 50.18 100.232 50.42 99.5123 50.9C98.8056 51.3667 98.2723 51.9733 97.9123 52.72ZM108.266 57.1C108.266 56.9267 108.34 56.74 108.486 56.54C108.646 56.34 108.826 56.2133 109.026 56.16C109.12 56.16 109.166 56.1733 109.166 56.2C109.593 56.6667 110.206 57.0333 111.006 57.3C111.806 57.5533 112.433 57.7 112.886 57.74C113.353 57.78 113.786 57.8 114.186 57.8C115.92 57.8 116.786 57.2733 116.786 56.22C116.786 55.86 116.653 55.5733 116.386 55.36C116.133 55.1333 115.78 54.98 115.326 54.9C114.886 54.82 114.44 54.7667 113.986 54.74C113.533 54.7133 113.04 54.6933 112.506 54.68C111.973 54.6533 111.566 54.6133 111.286 54.56C110.526 54.4133 109.853 54.1067 109.266 53.64C108.68 53.16 108.386 52.6 108.386 51.96C108.386 50.9467 108.893 50.1733 109.906 49.64C110.933 49.0933 112.06 48.82 113.286 48.82C114.113 48.82 115 48.9667 115.946 49.26C116.893 49.54 117.6 49.98 118.066 50.58C118.08 50.6067 118.086 50.64 118.086 50.68C118.086 50.8533 118.006 51.06 117.846 51.3C117.686 51.5267 117.533 51.64 117.386 51.64C117.253 51.64 117.12 51.5333 116.986 51.32C116.346 50.64 115.073 50.3 113.166 50.3C112.38 50.3 111.633 50.4333 110.926 50.7C110.22 50.9667 109.866 51.36 109.866 51.88C109.866 52.32 110.173 52.6533 110.786 52.88C111.4 53.0933 112.053 53.2 112.746 53.2C113.24 53.2 113.653 53.2067 113.986 53.22C114.32 53.2333 114.726 53.2733 115.206 53.34C115.686 53.3933 116.086 53.4933 116.406 53.64C116.726 53.7733 117.04 53.9533 117.346 54.18C117.653 54.3933 117.88 54.6867 118.026 55.06C118.186 55.42 118.266 55.8467 118.266 56.34C118.266 57.02 118.053 57.5933 117.626 58.06C117.213 58.5133 116.733 58.8267 116.186 59C115.653 59.1867 115.086 59.28 114.486 59.28C111.673 59.28 109.646 58.68 108.406 57.48C108.313 57.3867 108.266 57.26 108.266 57.1ZM33.0577 82.44V69.54C33.0577 69.18 33.311 69 33.8177 69C34.0177 69 34.1843 69.0467 34.3177 69.14C34.4643 69.2333 34.5377 69.3667 34.5377 69.54V81.54H41.0977C41.271 81.54 41.4043 81.6133 41.4977 81.76C41.6043 81.9067 41.6577 82.08 41.6577 82.28C41.6577 82.76 41.471 83 41.0977 83H34.2177C33.4443 83 33.0577 82.8133 33.0577 82.44ZM43.032 82.44V73.54C43.032 73.18 43.2854 73 43.792 73C43.992 73 44.1587 73.0467 44.292 73.14C44.4387 73.2333 44.512 73.3667 44.512 73.54V82.44C44.512 82.6133 44.4387 82.7533 44.292 82.86C44.1454 82.9533 43.972 83 43.772 83C43.2787 83 43.032 82.8133 43.032 82.44ZM43.032 70.44V70.08C43.032 69.72 43.2854 69.54 43.792 69.54C43.992 69.54 44.1587 69.5867 44.292 69.68C44.4387 69.7733 44.512 69.9067 44.512 70.08V70.44C44.512 70.6133 44.4387 70.7533 44.292 70.86C44.1454 70.9533 43.972 71 43.772 71C43.2787 71 43.032 70.8133 43.032 70.44ZM46.4988 81.1C46.4988 80.9267 46.5721 80.74 46.7188 80.54C46.8788 80.34 47.0588 80.2133 47.2588 80.16C47.3521 80.16 47.3988 80.1733 47.3988 80.2C47.8254 80.6667 48.4388 81.0333 49.2388 81.3C50.0388 81.5533 50.6654 81.7 51.1188 81.74C51.5854 81.78 52.0188 81.8 52.4188 81.8C54.1521 81.8 55.0188 81.2733 55.0188 80.22C55.0188 79.86 54.8854 79.5733 54.6188 79.36C54.3654 79.1333 54.0121 78.98 53.5588 78.9C53.1188 78.82 52.6721 78.7667 52.2188 78.74C51.7654 78.7133 51.2721 78.6933 50.7388 78.68C50.2054 78.6533 49.7988 78.6133 49.5188 78.56C48.7588 78.4133 48.0854 78.1067 47.4988 77.64C46.9121 77.16 46.6188 76.6 46.6188 75.96C46.6188 74.9467 47.1254 74.1733 48.1388 73.64C49.1654 73.0933 50.2921 72.82 51.5188 72.82C52.3454 72.82 53.2321 72.9667 54.1788 73.26C55.1254 73.54 55.8321 73.98 56.2988 74.58C56.3121 74.6067 56.3188 74.64 56.3188 74.68C56.3188 74.8533 56.2388 75.06 56.0788 75.3C55.9188 75.5267 55.7654 75.64 55.6188 75.64C55.4854 75.64 55.3521 75.5333 55.2188 75.32C54.5788 74.64 53.3054 74.3 51.3988 74.3C50.6121 74.3 49.8654 74.4333 49.1588 74.7C48.4521 74.9667 48.0988 75.36 48.0988 75.88C48.0988 76.32 48.4054 76.6533 49.0188 76.88C49.6321 77.0933 50.2854 77.2 50.9788 77.2C51.4721 77.2 51.8854 77.2067 52.2188 77.22C52.5521 77.2333 52.9588 77.2733 53.4388 77.34C53.9188 77.3933 54.3188 77.4933 54.6388 77.64C54.9588 77.7733 55.2721 77.9533 55.5788 78.18C55.8854 78.3933 56.1121 78.6867 56.2588 79.06C56.4188 79.42 56.4988 79.8467 56.4988 80.34C56.4988 81.02 56.2854 81.5933 55.8588 82.06C55.4454 82.5133 54.9654 82.8267 54.4188 83C53.8854 83.1867 53.3188 83.28 52.7188 83.28C49.9054 83.28 47.8788 82.68 46.6388 81.48C46.5454 81.3867 46.4988 81.26 46.4988 81.1ZM57.8408 73.74C57.8408 73.54 57.8874 73.3667 57.9808 73.22C58.0874 73.0733 58.2274 73 58.4008 73H59.0808V70.54C59.0808 70.3667 59.1474 70.2333 59.2808 70.14C59.4274 70.0467 59.6008 70 59.8008 70C60.3074 70 60.5608 70.18 60.5608 70.54V73H63.7608C63.9341 73 64.0674 73.0733 64.1608 73.22C64.2541 73.3533 64.3008 73.52 64.3008 73.72C64.3008 74.2267 64.1208 74.48 63.7608 74.48H60.5608V79.26C60.5608 80.7533 61.1274 81.5 62.2608 81.5C62.7408 81.5 63.1541 81.3667 63.5008 81.1C63.8608 80.8333 64.0408 80.3667 64.0408 79.7C64.0408 79.5133 64.1141 79.36 64.2608 79.24C64.4208 79.12 64.6074 79.06 64.8208 79.06C65.0208 79.06 65.1874 79.12 65.3208 79.24C65.4541 79.3467 65.5208 79.5067 65.5208 79.72C65.5074 80.7733 65.1874 81.58 64.5608 82.14C63.9474 82.7 63.1808 82.98 62.2608 82.98C60.1408 82.98 59.0808 81.56 59.0808 78.72V74.48H58.4008C58.0274 74.48 57.8408 74.2333 57.8408 73.74ZM67.0555 82.44V73.54C67.0555 73.18 67.3088 73 67.8155 73C68.0155 73 68.1821 73.0467 68.3155 73.14C68.4621 73.2333 68.5355 73.3667 68.5355 73.54V82.44C68.5355 82.6133 68.4621 82.7533 68.3155 82.86C68.1688 82.9533 67.9955 83 67.7955 83C67.3021 83 67.0555 82.8133 67.0555 82.44ZM67.0555 70.44V70.08C67.0555 69.72 67.3088 69.54 67.8155 69.54C68.0155 69.54 68.1821 69.5867 68.3155 69.68C68.4621 69.7733 68.5355 69.9067 68.5355 70.08V70.44C68.5355 70.6133 68.4621 70.7533 68.3155 70.86C68.1688 70.9533 67.9955 71 67.7955 71C67.3021 71 67.0555 70.8133 67.0555 70.44ZM70.9422 82.48V73.54C70.9422 73.3667 71.0089 73.2333 71.1422 73.14C71.2889 73.0467 71.4622 73 71.6622 73C72.1689 73 72.4222 73.18 72.4222 73.54V75.12C73.0889 74.4 73.8955 73.8333 74.8422 73.42C75.7889 72.9933 76.7489 72.78 77.7222 72.78C78.9755 72.78 80.0222 73.1733 80.8622 73.96C81.7155 74.7333 82.1422 75.7467 82.1422 77C82.1422 77.12 82.1355 77.7333 82.1222 78.84C82.1222 79.9333 82.1222 81.1333 82.1222 82.44C82.1222 82.6133 82.0489 82.7533 81.9022 82.86C81.7555 82.9533 81.5822 83 81.3822 83C80.8889 83 80.6422 82.8133 80.6422 82.44V77.18C80.6422 76.2333 80.3022 75.5067 79.6222 75C78.9555 74.4933 78.2622 74.24 77.5422 74.24C76.5689 74.24 75.5689 74.5667 74.5422 75.22C73.5289 75.86 72.8222 76.6733 72.4222 77.66V82.48C72.4222 82.84 72.1689 83.02 71.6622 83.02C71.4622 83.02 71.2889 82.9733 71.1422 82.88C71.0089 82.7867 70.9422 82.6533 70.9422 82.48ZM83.9592 79.36C83.9592 77.5733 84.6592 76.0333 86.0592 74.74C87.4592 73.4467 89.0459 72.8 90.8192 72.8C91.9259 72.8 92.8926 73.1933 93.7192 73.98V73.52C93.7192 73.16 93.9726 72.98 94.4792 72.98C94.6792 72.98 94.8459 73.0267 94.9792 73.12C95.1259 73.2133 95.1992 73.3467 95.1992 73.52V83.1C95.1992 84.66 94.6926 85.88 93.6792 86.76C92.6659 87.6533 91.4859 88.1 90.1392 88.1C89.0726 88.1 88.1792 87.9133 87.4592 87.54C86.7392 87.1667 86.3726 86.5467 86.3592 85.68C86.3592 85.4667 86.4259 85.3 86.5592 85.18C86.6926 85.0733 86.8592 85.02 87.0592 85.02C87.2726 85.02 87.4526 85.08 87.5992 85.2C87.7592 85.32 87.8392 85.4733 87.8392 85.66C87.8392 85.8867 87.8992 86.0667 88.0192 86.2C88.1526 86.3467 88.3592 86.4467 88.6392 86.5C88.9192 86.5533 89.1592 86.5867 89.3592 86.6C89.5726 86.6133 89.8659 86.62 90.2392 86.62C91.1859 86.62 91.9992 86.3333 92.6792 85.76C93.3726 85.1867 93.7192 84.3467 93.7192 83.24V79.18C92.6392 80.58 91.6059 81.5933 90.6192 82.22C89.6459 82.8467 88.6392 83.16 87.5992 83.16C86.6392 83.16 85.7926 82.7733 85.0592 82C84.3259 81.2133 83.9592 80.3333 83.9592 79.36ZM85.3992 79.4C85.3992 80.16 85.6659 80.74 86.1992 81.14C86.7326 81.5267 87.2992 81.72 87.8992 81.72C88.5926 81.72 89.3859 81.38 90.2792 80.7C91.1726 80.0067 91.9126 79.24 92.4992 78.4C93.0992 77.5467 93.3992 76.88 93.3992 76.4C93.3992 76 93.2792 75.6467 93.0392 75.34C92.8126 75.02 92.5259 74.7867 92.1792 74.64C91.8459 74.4933 91.5392 74.3867 91.2592 74.32C90.9792 74.24 90.7459 74.2 90.5592 74.2C89.2526 74.2 88.0659 74.7267 86.9992 75.78C85.9326 76.82 85.3992 78.0267 85.3992 79.4ZM39.0928 106.44V93.54C39.0928 93.18 39.3461 93 39.8528 93C40.0528 93 40.2195 93.0467 40.3528 93.14C40.4995 93.2333 40.5728 93.3667 40.5728 93.54V94.6C41.5328 93.52 42.7461 92.98 44.2128 92.98C45.1995 92.98 46.0461 93.2467 46.7528 93.78C47.4595 94.3133 47.8128 95.0533 47.8128 96C47.8128 96.5867 47.6528 97.1733 47.3328 97.76C47.0261 98.3333 46.5395 98.7267 45.8728 98.94C47.1395 99.14 48.1061 99.6133 48.7728 100.36C49.4528 101.107 49.7928 101.907 49.7928 102.76C49.7928 104.08 49.3661 105.173 48.5128 106.04C47.6595 106.907 46.3261 107.34 44.5128 107.34C42.9528 107.34 41.6261 107.107 40.5328 106.64C40.4128 106.88 40.1795 107 39.8328 107C39.3395 107 39.0928 106.813 39.0928 106.44ZM40.5728 105.18C41.4261 105.633 42.6728 105.86 44.3128 105.86C45.6728 105.86 46.6795 105.587 47.3328 105.04C47.9861 104.48 48.3128 103.793 48.3128 102.98C48.3128 102.033 47.9061 101.327 47.0928 100.86C46.2795 100.38 45.2061 100.14 43.8728 100.14C43.4595 100.14 42.8661 100.153 42.0928 100.18C41.3195 100.193 40.8128 100.2 40.5728 100.2V105.18ZM40.5728 98.58C41.1061 98.6467 41.6995 98.68 42.3528 98.68C43.6061 98.68 44.5795 98.4267 45.2728 97.92C45.9795 97.4 46.3328 96.7933 46.3328 96.1C46.3328 95.5267 46.1395 95.1 45.7528 94.82C45.3661 94.54 44.8528 94.4 44.2128 94.4C43.4661 94.4 42.7661 94.58 42.1128 94.94C41.4595 95.3 40.9461 95.86 40.5728 96.62V98.58ZM51.6844 106.44V92.54C51.6844 92.18 51.9377 92 52.4444 92C52.6444 92 52.811 92.0467 52.9444 92.14C53.091 92.2333 53.1644 92.3667 53.1644 92.54V106.44C53.1644 106.613 53.091 106.753 52.9444 106.86C52.7977 106.953 52.6244 107 52.4244 107C51.931 107 51.6844 106.813 51.6844 106.44ZM55.1311 102.04C55.1311 100.893 55.4311 99.9067 56.0311 99.08C56.6444 98.24 57.3778 97.6333 58.2311 97.26C59.0978 96.8867 60.0044 96.7 60.9511 96.7C62.2844 96.7 63.5111 97.2067 64.6311 98.22C65.7644 99.22 66.3311 100.487 66.3311 102.02C66.3311 103.473 65.8311 104.72 64.8311 105.76C63.8311 106.787 62.5244 107.3 60.9111 107.3C59.3244 107.3 57.9644 106.787 56.8311 105.76C55.6978 104.72 55.1311 103.48 55.1311 102.04ZM56.6111 102.06C56.6111 103.007 57.0444 103.873 57.9111 104.66C58.7778 105.433 59.7844 105.82 60.9311 105.82C62.0111 105.82 62.9311 105.427 63.6911 104.64C64.4644 103.853 64.8511 102.98 64.8511 102.02C64.8511 101.087 64.4844 100.213 63.7511 99.4C63.0178 98.5867 62.0711 98.18 60.9111 98.18C59.5511 98.18 58.4911 98.5933 57.7311 99.42C56.9844 100.247 56.6111 101.127 56.6111 102.06ZM67.8459 102.04C67.8459 100.893 68.1526 99.9067 68.7659 99.08C69.3793 98.24 70.1193 97.6333 70.9859 97.26C71.8526 96.8867 72.7593 96.7 73.7059 96.7C74.9059 96.7 76.0193 97.1133 77.0459 97.94C77.1526 98.0333 77.2059 98.1533 77.2059 98.3C77.2059 98.5133 77.1193 98.7133 76.9459 98.9C76.7726 99.0733 76.5926 99.16 76.4059 99.16C76.2726 99.16 76.1593 99.1133 76.0659 99.02C75.4259 98.46 74.6259 98.18 73.6659 98.18C72.3059 98.18 71.2393 98.5933 70.4659 99.42C69.7059 100.247 69.3259 101.127 69.3259 102.06C69.3259 103.007 69.7659 103.873 70.6459 104.66C71.5259 105.433 72.5393 105.82 73.6859 105.82C74.8593 105.82 75.8126 105.4 76.5459 104.56C76.6926 104.413 76.8193 104.34 76.9259 104.34C77.1259 104.34 77.3193 104.44 77.5059 104.64C77.6926 104.84 77.7859 105.033 77.7859 105.22C77.7859 105.34 77.7393 105.447 77.6459 105.54C76.6193 106.713 75.3326 107.3 73.7859 107.3C72.1459 107.3 70.7459 106.787 69.5859 105.76C68.4259 104.72 67.8459 103.48 67.8459 102.04ZM79.3797 106.44V92.54C79.3797 92.18 79.633 92 80.1397 92C80.3397 92 80.5064 92.0467 80.6397 92.14C80.7864 92.2333 80.8597 92.3667 80.8597 92.54V101.08L87.7197 97.14C87.8664 97.0467 88.0064 97 88.1397 97C88.3397 97 88.4997 97.1 88.6197 97.3C88.753 97.4867 88.8197 97.6867 88.8197 97.9C88.8197 98.1 88.7664 98.2333 88.6597 98.3L84.1597 100.88L90.3397 105.98C90.393 106.073 90.4197 106.167 90.4197 106.26C90.4197 106.487 90.2864 106.68 90.0197 106.84C89.8464 106.947 89.673 107 89.4997 107C89.313 107 89.1664 106.92 89.0597 106.76L82.7797 101.68L80.8597 102.78V106.44C80.8597 106.613 80.7864 106.753 80.6397 106.86C80.493 106.953 80.3197 107 80.1197 107C79.6264 107 79.3797 106.813 79.3797 106.44Z" fill="black"/>
</svg>
